<mxfile host="65bd71144e">
    <diagram id="CMfibXNdr67PjX5RVMXQ" name="Page-1">
        <mxGraphModel dx="439" dy="532" grid="1" gridSize="10" guides="1" tooltips="1" connect="1" arrows="1" fold="1" page="1" pageScale="1" pageWidth="850" pageHeight="1100" math="0" shadow="0">
            <root>
                <mxCell id="0"/>
                <mxCell id="1" parent="0"/>
                <mxCell id="5" style="edgeStyle=none;html=1;entryX=0.75;entryY=0;entryDx=0;entryDy=0;rounded=0;curved=0;" edge="1" parent="1" source="2" target="4">
                    <mxGeometry relative="1" as="geometry"/>
                </mxCell>
                <mxCell id="2" value="TransformerMixin" style="rounded=0;whiteSpace=wrap;html=1;strokeColor=none;fillColor=#f5f5f5;fontColor=#333333;fontSize=10;" vertex="1" parent="1">
                    <mxGeometry x="140" y="120" width="100" height="30" as="geometry"/>
                </mxCell>
                <mxCell id="6" style="edgeStyle=none;html=1;entryX=0.25;entryY=0;entryDx=0;entryDy=0;rounded=0;curved=0;" edge="1" parent="1" source="3" target="4">
                    <mxGeometry relative="1" as="geometry">
                        <mxPoint x="165" y="180" as="targetPoint"/>
                    </mxGeometry>
                </mxCell>
                <mxCell id="3" value="BaseEstimator" style="rounded=0;whiteSpace=wrap;html=1;strokeColor=none;fillColor=#f5f5f5;fontColor=#333333;fontSize=10;" vertex="1" parent="1">
                    <mxGeometry x="20" y="120" width="100" height="30" as="geometry"/>
                </mxCell>
                <mxCell id="4" value="CustomTransformer" style="rounded=0;whiteSpace=wrap;html=1;strokeColor=none;fillColor=#FF9933;fontColor=#FFFFFF;fontSize=10;" vertex="1" parent="1">
                    <mxGeometry x="75" y="180" width="100" height="30" as="geometry"/>
                </mxCell>
                <mxCell id="9" value=".fit()" style="rounded=0;whiteSpace=wrap;html=1;strokeColor=none;fillColor=#3399FF;fontColor=#FFFFFF;fontSize=10;" vertex="1" parent="1">
                    <mxGeometry x="210" y="170" width="100" height="20" as="geometry"/>
                </mxCell>
                <mxCell id="11" value=".transform()" style="rounded=0;whiteSpace=wrap;html=1;strokeColor=none;fillColor=#4D9900;fontColor=#FFFFFF;fontSize=10;" vertex="1" parent="1">
                    <mxGeometry x="210" y="200" width="100" height="20" as="geometry"/>
                </mxCell>
                <mxCell id="17" value="" style="strokeWidth=2;html=1;shape=mxgraph.flowchart.annotation_2;align=left;labelPosition=right;pointerEvents=1;" vertex="1" parent="1">
                    <mxGeometry x="180" y="163.75" width="50" height="62.5" as="geometry"/>
                </mxCell>
                <UserObject label="&lt;div style=&quot;font-family: Menlo, Monaco, &amp;quot;Courier New&amp;quot;, monospace; font-weight: normal; line-height: 18px; white-space: pre;&quot;&gt;&lt;div style=&quot;&quot;&gt;&lt;div style=&quot;line-height: 100%;&quot;&gt;&lt;div style=&quot;&quot;&gt;&lt;font style=&quot;font-size: 9px; line-height: 100%;&quot;&gt;&lt;span style=&quot;background-color: light-dark(rgb(255, 255, 255), rgb(18, 18, 18)); color: rgb(0, 0, 255);&quot;&gt;class&lt;/span&gt;&lt;span style=&quot;background-color: light-dark(rgb(255, 255, 255), rgb(18, 18, 18)); color: rgb(0, 0, 0);&quot;&gt; &lt;/span&gt;&lt;span style=&quot;color: rgb(0, 0, 0); background-color: rgb(255, 153, 51);&quot;&gt;&lt;font style=&quot;color: rgb(255, 255, 255);&quot;&gt;CustomTransformer&lt;/font&gt;&lt;/span&gt;&lt;span style=&quot;background-color: light-dark(rgb(255, 255, 255), rgb(18, 18, 18)); color: rgb(0, 0, 0);&quot;&gt;(BaseEstimator, TransformerMixin):&lt;/span&gt;&lt;/font&gt;&lt;/div&gt;&lt;font style=&quot;background-color: light-dark(rgb(255, 255, 255), rgb(18, 18, 18)); color: light-dark(rgb(0, 0, 0), rgb(237, 237, 237)); font-size: 9px;&quot;&gt;&lt;br&gt;&lt;/font&gt;&lt;div style=&quot;background-color: light-dark(rgb(255, 255, 255), rgb(18, 18, 18)); color: light-dark(rgb(0, 0, 0), rgb(237, 237, 237));&quot;&gt;&lt;font style=&quot;font-size: 9px; line-height: 100%;&quot;&gt;&lt;span style=&quot;color: rgb(0, 0, 0);&quot;&gt;    &lt;/span&gt;&lt;span style=&quot;color: rgb(0, 0, 255);&quot;&gt;def&lt;/span&gt;&lt;span style=&quot;color: rgb(0, 0, 0);&quot;&gt; __init__(self, variables=&lt;/span&gt;&lt;span style=&quot;color: rgb(0, 0, 255);&quot;&gt;None&lt;/span&gt;&lt;span style=&quot;color: rgb(0, 0, 0);&quot;&gt;):&lt;/span&gt;&lt;/font&gt;&lt;/div&gt;&lt;div style=&quot;background-color: light-dark(rgb(255, 255, 255), rgb(18, 18, 18)); color: light-dark(rgb(0, 0, 0), rgb(237, 237, 237));&quot;&gt;&lt;font style=&quot;font-size: 9px; line-height: 100%;&quot;&gt;&lt;span style=&quot;color: rgb(0, 0, 0);&quot;&gt;        &lt;/span&gt;&lt;span style=&quot;color: rgb(0, 0, 255);&quot;&gt;self&lt;/span&gt;&lt;span style=&quot;color: rgb(0, 0, 0);&quot;&gt;.variables = variables&lt;/span&gt;&lt;/font&gt;&lt;/div&gt;&lt;font style=&quot;background-color: light-dark(rgb(255, 255, 255), rgb(18, 18, 18)); color: light-dark(rgb(0, 0, 0), rgb(237, 237, 237)); font-size: 9px;&quot;&gt;&lt;br&gt;&lt;/font&gt;&lt;div style=&quot;&quot;&gt;&lt;font style=&quot;font-size: 9px; line-height: 100%;&quot;&gt;&lt;span style=&quot;background-color: light-dark(rgb(255, 255, 255), rgb(18, 18, 18)); color: rgb(0, 0, 0);&quot;&gt;    &lt;/span&gt;&lt;span style=&quot;background-color: light-dark(rgb(255, 255, 255), rgb(18, 18, 18)); color: rgb(0, 0, 255);&quot;&gt;def&lt;/span&gt;&lt;span style=&quot;background-color: light-dark(rgb(255, 255, 255), rgb(18, 18, 18)); color: rgb(0, 0, 0);&quot;&gt; &lt;/span&gt;&lt;span style=&quot;color: rgb(0, 0, 0); background-color: rgb(51, 153, 255);&quot;&gt;&lt;font style=&quot;color: rgb(255, 255, 255);&quot;&gt;fit&lt;/font&gt;&lt;/span&gt;&lt;span style=&quot;background-color: light-dark(rgb(255, 255, 255), rgb(18, 18, 18)); color: rgb(0, 0, 0);&quot;&gt;(self, X, y=&lt;/span&gt;&lt;span style=&quot;background-color: light-dark(rgb(255, 255, 255), rgb(18, 18, 18)); color: rgb(0, 0, 255);&quot;&gt;None&lt;/span&gt;&lt;span style=&quot;background-color: light-dark(rgb(255, 255, 255), rgb(18, 18, 18)); color: rgb(0, 0, 0);&quot;&gt;):&lt;/span&gt;&lt;/font&gt;&lt;/div&gt;&lt;div style=&quot;background-color: light-dark(rgb(255, 255, 255), rgb(18, 18, 18)); color: light-dark(rgb(0, 0, 0), rgb(237, 237, 237));&quot;&gt;&lt;span style=&quot;color: rgb(0, 0, 0);&quot;&gt;&lt;font style=&quot;font-size: 9px; line-height: 100%;&quot;&gt;        X_ = X.copy()&lt;/font&gt;&lt;/span&gt;&lt;/div&gt;&lt;div style=&quot;background-color: light-dark(rgb(255, 255, 255), rgb(18, 18, 18)); color: light-dark(rgb(0, 0, 0), rgb(237, 237, 237));&quot;&gt;&lt;font style=&quot;font-size: 9px; line-height: 100%;&quot;&gt;&lt;span style=&quot;color: rgb(0, 0, 0);&quot;&gt;        &lt;/span&gt;&lt;span style=&quot;color: rgb(0, 0, 255);&quot;&gt;if&lt;/span&gt;&lt;span style=&quot;color: rgb(0, 0, 0);&quot;&gt; &lt;/span&gt;&lt;span style=&quot;color: rgb(0, 0, 255);&quot;&gt;self&lt;/span&gt;&lt;span style=&quot;color: rgb(0, 0, 0);&quot;&gt;.variables &lt;/span&gt;&lt;span style=&quot;color: rgb(0, 0, 255);&quot;&gt;is&lt;/span&gt;&lt;span style=&quot;color: rgb(0, 0, 0);&quot;&gt; &lt;/span&gt;&lt;span style=&quot;color: rgb(0, 0, 255);&quot;&gt;None&lt;/span&gt;&lt;span style=&quot;color: rgb(0, 0, 0);&quot;&gt;:&lt;/span&gt;&lt;/font&gt;&lt;/div&gt;&lt;div style=&quot;background-color: light-dark(rgb(255, 255, 255), rgb(18, 18, 18)); color: light-dark(rgb(0, 0, 0), rgb(237, 237, 237));&quot;&gt;&lt;font style=&quot;font-size: 9px; line-height: 100%;&quot;&gt;&lt;span style=&quot;color: rgb(0, 0, 0);&quot;&gt;            &lt;/span&gt;&lt;span style=&quot;color: rgb(0, 0, 255);&quot;&gt;self&lt;/span&gt;&lt;span style=&quot;color: rgb(0, 0, 0);&quot;&gt;.variables = X_.columns.tolist()&lt;/span&gt;&lt;/font&gt;&lt;/div&gt;&lt;div style=&quot;background-color: light-dark(rgb(255, 255, 255), rgb(18, 18, 18)); color: light-dark(rgb(0, 0, 0), rgb(237, 237, 237));&quot;&gt;&lt;font style=&quot;font-size: 9px; line-height: 100%;&quot;&gt;&lt;span style=&quot;color: rgb(0, 0, 0);&quot;&gt;        &lt;/span&gt;&lt;span style=&quot;color: rgb(0, 0, 255);&quot;&gt;self&lt;/span&gt;&lt;span style=&quot;color: rgb(0, 0, 0);&quot;&gt;.promedios_ = X_[&lt;/span&gt;&lt;span style=&quot;color: rgb(0, 0, 255);&quot;&gt;self&lt;/span&gt;&lt;span style=&quot;color: rgb(0, 0, 0);&quot;&gt;.variables].mean()&lt;/span&gt;&lt;/font&gt;&lt;/div&gt;&lt;div style=&quot;background-color: light-dark(rgb(255, 255, 255), rgb(18, 18, 18)); color: light-dark(rgb(0, 0, 0), rgb(237, 237, 237));&quot;&gt;&lt;font style=&quot;font-size: 9px; line-height: 100%;&quot;&gt;&lt;span style=&quot;color: rgb(0, 0, 0);&quot;&gt;        &lt;/span&gt;&lt;span style=&quot;color: rgb(0, 0, 255);&quot;&gt;return&lt;/span&gt;&lt;span style=&quot;color: rgb(0, 0, 0);&quot;&gt; &lt;/span&gt;&lt;span style=&quot;color: rgb(0, 0, 255);&quot;&gt;self&lt;/span&gt;&lt;/font&gt;&lt;/div&gt;&lt;font style=&quot;background-color: light-dark(rgb(255, 255, 255), rgb(18, 18, 18)); color: light-dark(rgb(0, 0, 0), rgb(237, 237, 237)); font-size: 9px;&quot;&gt;&lt;br&gt;&lt;/font&gt;&lt;div style=&quot;&quot;&gt;&lt;font style=&quot;font-size: 9px; line-height: 100%;&quot;&gt;&lt;span style=&quot;color: rgb(0, 0, 0); background-color: light-dark(rgb(255, 255, 255), rgb(18, 18, 18));&quot;&gt;    &lt;/span&gt;&lt;span style=&quot;color: rgb(0, 0, 255); background-color: light-dark(rgb(255, 255, 255), rgb(18, 18, 18));&quot;&gt;def&lt;/span&gt;&lt;span&gt;&lt;font style=&quot;color: rgb(255, 255, 255);&quot;&gt; &lt;/font&gt;&lt;span style=&quot;background-color: rgb(77, 153, 0);&quot;&gt;&lt;font style=&quot;color: rgb(255, 255, 255);&quot;&gt;transform&lt;/font&gt;&lt;/span&gt;&lt;font style=&quot;color: rgb(0, 0, 0);&quot;&gt;(self, X):&lt;/font&gt;&lt;/span&gt;&lt;/font&gt;&lt;/div&gt;&lt;div style=&quot;background-color: light-dark(rgb(255, 255, 255), rgb(18, 18, 18)); color: light-dark(rgb(0, 0, 0), rgb(237, 237, 237));&quot;&gt;&lt;span style=&quot;color: rgb(0, 0, 0);&quot;&gt;&lt;font style=&quot;font-size: 9px; line-height: 100%;&quot;&gt;        X_ = X.copy()&lt;/font&gt;&lt;/span&gt;&lt;/div&gt;&lt;div style=&quot;background-color: light-dark(rgb(255, 255, 255), rgb(18, 18, 18)); color: light-dark(rgb(0, 0, 0), rgb(237, 237, 237));&quot;&gt;&lt;font style=&quot;font-size: 9px; line-height: 100%;&quot;&gt;&lt;span style=&quot;color: rgb(0, 0, 0);&quot;&gt;        &lt;/span&gt;&lt;span style=&quot;color: rgb(0, 0, 255);&quot;&gt;for&lt;/span&gt;&lt;span style=&quot;color: rgb(0, 0, 0);&quot;&gt; var &lt;/span&gt;&lt;span style=&quot;color: rgb(0, 0, 255);&quot;&gt;in&lt;/span&gt;&lt;span style=&quot;color: rgb(0, 0, 0);&quot;&gt; &lt;/span&gt;&lt;span style=&quot;color: rgb(0, 0, 255);&quot;&gt;self&lt;/span&gt;&lt;span style=&quot;color: rgb(0, 0, 0);&quot;&gt;.variables:&lt;/span&gt;&lt;/font&gt;&lt;/div&gt;&lt;div style=&quot;background-color: light-dark(rgb(255, 255, 255), rgb(18, 18, 18)); color: light-dark(rgb(0, 0, 0), rgb(237, 237, 237));&quot;&gt;&lt;font style=&quot;font-size: 9px; line-height: 100%;&quot;&gt;&lt;span style=&quot;color: rgb(0, 0, 0);&quot;&gt;            X_[var] = X_[var] / &lt;/span&gt;&lt;span style=&quot;color: rgb(0, 0, 255);&quot;&gt;self&lt;/span&gt;&lt;span style=&quot;color: rgb(0, 0, 0);&quot;&gt;.promedios_[var]&lt;/span&gt;&lt;/font&gt;&lt;/div&gt;&lt;div style=&quot;background-color: light-dark(rgb(255, 255, 255), rgb(18, 18, 18)); color: light-dark(rgb(0, 0, 0), rgb(237, 237, 237));&quot;&gt;&lt;font style=&quot;font-size: 9px; line-height: 100%;&quot;&gt;&lt;span style=&quot;color: rgb(0, 0, 0);&quot;&gt;        &lt;/span&gt;&lt;span style=&quot;color: rgb(0, 0, 255);&quot;&gt;return&lt;/span&gt;&lt;span style=&quot;color: rgb(0, 0, 0);&quot;&gt; X_&lt;/span&gt;&lt;/font&gt;&lt;/div&gt;&lt;/div&gt;&lt;/div&gt;&lt;/div&gt;" id="18">
                    <mxCell style="text;whiteSpace=wrap;html=1;" vertex="1" parent="1">
                        <mxGeometry x="40" y="240" width="560" height="260" as="geometry"/>
                    </mxCell>
                </UserObject>
                <mxCell id="20" value="&lt;font style=&quot;color: rgb(51, 153, 255);&quot;&gt;Aprendizaje de aspectos de los datos de entrenamiento (fit): &lt;/font&gt;&lt;font style=&quot;color: rgb(147, 147, 147);&quot;&gt;Promedio de cada variable&lt;/font&gt;" style="text;html=1;align=left;verticalAlign=middle;whiteSpace=wrap;rounded=0;fontFamily=Tahoma;" vertex="1" parent="1">
                    <mxGeometry x="370" y="301" width="175" height="30" as="geometry"/>
                </mxCell>
                <mxCell id="21" value="&lt;font style=&quot;color: rgb(77, 153, 0);&quot;&gt;Transformaciones sobre los datos (transform):&amp;nbsp;&lt;/font&gt;&lt;div&gt;&lt;font style=&quot;color: rgb(147, 147, 147);&quot;&gt;Variable / Promedio&lt;/font&gt;&lt;/div&gt;" style="text;html=1;align=left;verticalAlign=middle;whiteSpace=wrap;rounded=0;fontFamily=Tahoma;" vertex="1" parent="1">
                    <mxGeometry x="370" y="385" width="175" height="30" as="geometry"/>
                </mxCell>
                <mxCell id="26" style="edgeStyle=none;html=1;strokeColor=#4D9900;" edge="1" parent="1" source="23" target="21">
                    <mxGeometry relative="1" as="geometry"/>
                </mxCell>
                <mxCell id="23" value="" style="rounded=0;whiteSpace=wrap;html=1;fillColor=none;strokeColor=none;" vertex="1" parent="1">
                    <mxGeometry x="80" y="390" width="110" height="20" as="geometry"/>
                </mxCell>
                <mxCell id="25" style="edgeStyle=none;html=1;strokeColor=#3399FF;" edge="1" parent="1" source="24" target="20">
                    <mxGeometry relative="1" as="geometry"/>
                </mxCell>
                <mxCell id="24" value="" style="rounded=0;whiteSpace=wrap;html=1;fillColor=none;strokeColor=none;" vertex="1" parent="1">
                    <mxGeometry x="80" y="306" width="120" height="20" as="geometry"/>
                </mxCell>
            </root>
        </mxGraphModel>
    </diagram>
</mxfile>